<svg xmlns="http://www.w3.org/2000/svg" viewBox="0 0 1200 760"><rect width="1200" height="760" rx="32" fill="#09111d"/><text x="60" y="82" fill="#dbeafe" font-family="Arial" font-size="44" font-weight="700">CareerOS</text><text x="60" y="122" fill="#8fb8e8" font-family="Arial" font-size="20">Private career operating system</text><g font-family="Arial" font-size="24" fill="#e5eefb" text-anchor="middle"><rect x="70" y="245" width="220" height="120" rx="18" fill="#15324e" stroke="#6da8e8"/><text x="180" y="295">Applications</text><text x="180" y="328">+ milestones</text><rect x="350" y="245" width="220" height="120" rx="18" fill="#174238" stroke="#73c9a1"/><text x="460" y="295">Resume +</text><text x="460" y="328">evidence</text><rect x="630" y="245" width="220" height="120" rx="18" fill="#392d66" stroke="#b6a1ff"/><text x="740" y="295">AI Match</text><text x="740" y="328">rubric</text><rect x="910" y="245" width="220" height="120" rx="18" fill="#4b3821" stroke="#f2c879"/><text x="1020" y="295">Next actions</text><text x="1020" y="328">+ prep</text><rect x="280" y="520" width="260" height="110" rx="18" fill="#15324e" stroke="#6da8e8"/><text x="410" y="570">Live job feeds</text><text x="410" y="602">+ preferences</text><rect x="660" y="520" width="260" height="110" rx="18" fill="#174238" stroke="#73c9a1"/><text x="790" y="570">Private</text><text x="790" y="602">dashboard</text></g><g stroke="#8fb8e8" stroke-width="6" fill="none"><path d="M290 305h60M570 305h60M850 305h60M740 365v100H410v55M740 365v100H790v55"/><path d="m335 290 15 15-15 15M615 290l15 15-15 15M895 290l15 15-15 15M395 505l15 15-15 15M775 505l15 15-15 15"/></g></svg>
